Coordinates
version=1
nRows=27
nColumns=38
inDegrees=no

Units are S.I. units (second, meters, Newtons, ...)
If the header above contains a line with 'inDegrees', this indicates whether rotational values are in degrees (yes) or radians (no).

endheader
time	pelvis_tilt	pelvis_list	pelvis_rotation	pelvis_tx	pelvis_ty	pelvis_tz	hip_flexion_r	hip_adduction_r	hip_rotation_r	knee_angle_r	ankle_angle_r	subtalar_angle_r	mtp_angle_r	hip_flexion_l	hip_adduction_l	hip_rotation_l	knee_angle_l	ankle_angle_l	subtalar_angle_l	mtp_angle_l	lumbar_extension	lumbar_bending	lumbar_rotation	arm_flex_r	arm_add_r	arm_rot_r	elbow_flex_r	pro_sup_r	wrist_flex_r	wrist_dev_r	arm_flex_l	arm_add_l	arm_rot_l	elbow_flex_l	pro_sup_l	wrist_flex_l	wrist_dev_l
20	1.50441	1.39156	0.111625	0.805933	-0.72961	0.971839	0.206753	0.126162	-0.277888	0.195003	-0.0821426	0	0	-0.100739	-0.118715	-0.377989	0.0697497	0.147787	0	0	-0.1813	-0.039377	0.105725	0.0741382	-0.420511	-0.265092	1.57632	1.5708	0	0	0.432024	0.127151	0.427505	1.46604	1.5708	0	0
20.01	1.49956	1.39116	0.119822	0.805897	-0.728409	0.971965	0.207247	0.126649	-0.278573	0.195989	-0.0831647	0	0	-0.102013	-0.118729	-0.374174	0.0662691	0.145695	0	0	-0.179143	-0.0365231	0.10626	0.0677223	-0.422894	-0.266994	1.58107	1.5708	0	0	0.429293	0.132713	0.423439	1.46146	1.5708	0	0
20.02	1.49532	1.39057	0.12739	0.80589	-0.727203	0.972101	0.207391	0.127183	-0.279267	0.19647	-0.0839376	0	0	-0.103369	-0.118986	-0.371091	0.0626457	0.143253	0	0	-0.177302	-0.0338073	0.106815	0.0616428	-0.42472	-0.269352	1.58649	1.5708	0	0	0.428684	0.134356	0.424181	1.45855	1.5708	0	0
20.03	1.49503	1.39019	0.130962	0.805955	-0.725944	0.972244	0.206391	0.127692	-0.280037	0.19637	-0.084249	0	0	-0.105982	-0.119054	-0.367897	0.0580191	0.14026	0	0	-0.178893	-0.0321428	0.0988416	0.0648131	-0.425834	-0.260797	1.58973	1.5708	0	0	0.404713	0.165298	0.251578	1.60712	1.0592	0	0
20.04	1.48866	1.38947	0.14065	0.806021	-0.724702	0.972359	0.206586	0.128363	-0.280992	0.196294	-0.0849856	0	0	-0.10721	-0.119456	-0.364908	0.0536381	0.137287	0	0	-0.176573	-0.0297937	0.0989531	0.0592524	-0.427337	-0.262285	1.59565	1.5708	0	0	0.404185	0.166177	0.251831	1.60486	1.05075	0	0
20.05	1.48058	1.38844	0.152911	0.806024	-0.72351	0.97248	0.207543	0.128692	-0.284292	0.197117	-0.0851069	0	0	-0.107854	-0.120152	-0.359992	0.0492001	0.133937	0	0	-0.171476	-0.0267059	0.107044	0.0437937	-0.429351	-0.274863	1.60535	1.5708	0	0	0.427006	0.134982	0.429113	1.45651	1.5708	0	0
20.06	1.33041	1.39801	0.315937	0.806205	-0.723251	0.972501	0.239436	0.107385	-0.302554	0.21164	-0.080745	0	0	-0.080794	-0.109433	-0.375481	0.0378546	0.11769	0	0	-0.142131	-0.0500934	0.0846296	0.0775268	-0.330717	-0.366609	1.56413	1.5708	0	0	0.422493	0.12708	0.42566	1.44889	1.5708	0	0
20.07	1.46401	1.38895	0.179146	0.806027	-0.721146	0.972464	0.213144	0.124324	-0.302296	0.207826	-0.0780429	0	0	-0.107618	-0.119498	-0.352019	0.0435703	0.129815	0	0	-0.166499	-0.025049	0.104241	0.0305073	-0.430956	-0.279165	1.61794	1.5708	0	0	0.427907	0.135096	0.432089	1.44756	1.5708	0	0
20.08	1.45486	1.38888	0.193217	0.806104	-0.71998	0.972462	0.213372	0.124023	-0.305356	0.206814	-0.0775062	0	0	-0.106636	-0.119845	-0.349289	0.0420624	0.128389	0	0	-0.163834	-0.0242506	0.102532	0.0240797	-0.431314	-0.28071	1.62287	1.5708	0	0	0.427221	0.133299	0.433913	1.44566	1.5708	0	0
20.09	1.45753	1.38876	0.196225	0.806099	-0.719094	0.97265	0.211571	0.123961	-0.309308	0.205654	-0.077045	0	0	-0.104117	-0.122005	-0.351465	0.0479234	0.131036	0	0	-0.164205	-0.0227413	0.0997395	0.0189405	-0.432372	-0.281318	1.62785	1.5708	0	0	0.427666	0.13087	0.436244	1.44295	1.5708	0	0
20.1	1.45063	1.38842	0.208801	0.806236	-0.717977	0.972509	0.211845	0.123813	-0.314406	0.205539	-0.0751834	0	0	-0.102694	-0.123031	-0.348281	0.0476627	0.131021	0	0	-0.164624	-0.0223509	0.0889764	0.0206026	-0.432421	-0.272568	1.63117	1.5708	0	0	0.402825	0.158033	0.262723	1.59021	1.05178	0	0
20.11	1.44678	1.3881	0.217825	0.806316	-0.717035	0.972472	0.211707	0.123694	-0.318091	0.205268	-0.0742585	0	0	-0.101637	-0.124011	-0.345876	0.0476926	0.130804	0	0	-0.16339	-0.0213607	0.0871387	0.0140711	-0.432623	-0.274398	1.63657	1.5708	0	0	0.402403	0.155756	0.263729	1.58789	1.04366	0	0
20.12	1.39758	1.39796	0.272217	0.806727	-0.715597	0.971051	0.213399	0.115058	-0.313376	0.195738	-0.0714663	0	0	-0.0956483	-0.112142	-0.341128	0.046698	0.131134	0	0	-0.153892	-0.0347397	0.0842682	0.00222602	-0.429388	-0.279021	1.6448	1.5708	0	0	0.40129	0.150686	0.267779	1.58828	1.02389	0	0
20.13	1.43939	1.38759	0.23584	0.806479	-0.715198	0.972338	0.21087	0.1238	-0.32456	0.20356	-0.0723226	0	0	-0.0993114	-0.125965	-0.340976	0.0482408	0.130914	0	0	-0.160979	-0.0198377	0.0842781	-0.00207362	-0.432109	-0.281661	1.64913	1.5708	0	0	0.401269	0.151553	0.267516	1.5849	1.01907	0	0
20.14	1.39519	1.39712	0.285567	0.806824	-0.713812	0.970953	0.211592	0.11549	-0.320631	0.194074	-0.0690413	0	0	-0.0941403	-0.114616	-0.336369	0.0473149	0.131832	0	0	-0.152547	-0.0327094	0.0814738	-0.0141265	-0.428229	-0.288164	1.6573	1.5708	0	0	0.39968	0.146551	0.273335	1.58855	1.00672	0	0
20.15	1.39456	1.39656	0.291005	0.806853	-0.713004	0.970911	0.211089	0.115805	-0.32387	0.194039	-0.0676496	0	0	-0.093503	-0.115837	-0.334426	0.0474548	0.131951	0	0	-0.148647	-0.030797	0.0873551	-0.0282205	-0.427329	-0.30012	1.66388	1.5708	0	0	0.421461	0.111231	0.458531	1.44422	1.5708	0	0
20.16	1.39593	1.39612	0.29407	0.806898	-0.712202	0.970838	0.210127	0.116204	-0.32626	0.193799	-0.0664679	0	0	-0.0935774	-0.116923	-0.332599	0.047214	0.132067	0	0	-0.148501	-0.0296522	0.0870576	-0.0356623	-0.425996	-0.305453	1.67003	1.5708	0	0	0.419601	0.112197	0.457954	1.44366	1.5708	0	0
20.17	1.44191	1.38592	0.252696	0.806621	-0.711881	0.972085	0.207354	0.125002	-0.336889	0.202415	-0.0667742	0	0	-0.0986526	-0.130552	-0.331702	0.0475028	0.131529	0	0	-0.156701	-0.0148363	0.0896689	-0.0422496	-0.427585	-0.312414	1.67621	1.5708	0	0	0.420253	0.116334	0.459651	1.43784	1.5708	0	0
20.18	1.44819	1.38583	0.249998	0.80669	-0.711161	0.972048	0.206025	0.125131	-0.339612	0.203626	-0.0648691	0	0	-0.100435	-0.131343	-0.329639	0.046254	0.131703	0	0	-0.157661	-0.0139692	0.0900019	-0.0504221	-0.426902	-0.317208	1.68321	1.5708	0	0	0.419025	0.116583	0.46189	1.43853	1.5708	0	0
20.19	1.45448	1.38595	0.246917	0.806829	-0.710375	0.971955	0.204531	0.125158	-0.341751	0.204733	-0.0627077	0	0	-0.102637	-0.131712	-0.330018	0.0441248	0.132365	0	0	-0.160947	-0.013894	0.08145	-0.0475903	-0.426376	-0.310554	1.68569	1.5708	0	0	0.392141	0.146937	0.282395	1.59141	1.02704	0	0
20.2	1.45457	1.38552	0.24941	0.806941	-0.709777	0.971856	0.204527	0.125476	-0.342992	0.205674	-0.0613306	0	0	-0.102542	-0.13248	-0.328921	0.0437349	0.132635	0	0	-0.160707	-0.0129816	0.0817511	-0.0540358	-0.425648	-0.314343	1.69136	1.5708	0	0	0.389889	0.147336	0.283073	1.59382	1.02065	0	0
20.21	1.45329	1.38499	0.253432	0.807008	-0.709092	0.971804	0.204673	0.125713	-0.345143	0.206581	-0.060018	0	0	-0.10332	-0.133395	-0.325274	0.0421201	0.131755	0	0	-0.15725	-0.0115994	0.0905188	-0.0701531	-0.424094	-0.329122	1.69942	1.5708	0	0	0.411037	0.114427	0.466784	1.45152	1.5708	0	0
20.22	1.4567	1.38454	0.252531	0.807135	-0.708346	0.971735	0.203626	0.126304	-0.346876	0.207009	-0.0588352	0	0	-0.105667	-0.134347	-0.322965	0.0394196	0.131277	0	0	-0.159473	-0.0110794	0.0817601	-0.0672284	-0.423873	-0.321147	1.70155	1.5708	0	0	0.384741	0.14754	0.284947	1.59916	1.02648	0	0
20.23	1.39559	1.39215	0.314321	0.807411	-0.707188	0.970169	0.20868	0.119	-0.338606	0.19847	-0.0568167	0	0	-0.098482	-0.122915	-0.318503	0.0369538	0.131231	0	0	-0.144208	-0.0224751	0.0899323	-0.086549	-0.420127	-0.334802	1.70958	1.5708	0	0	0.403748	0.112604	0.468886	1.45747	1.5708	0	0
20.24	1.40367	1.39255	0.308299	0.807683	-0.706685	0.970201	0.206888	0.119207	-0.339985	0.199188	-0.0553191	0	0	-0.101475	-0.123283	-0.317177	0.0342971	0.130665	0	0	-0.148182	-0.0230686	0.0808423	-0.0819079	-0.419798	-0.32559	1.71121	1.5708	0	0	0.378818	0.144377	0.289542	1.60451	1.01196	0	0
20.25	1.45338	1.3827	0.260508	0.807583	-0.706911	0.971625	0.204148	0.12809	-0.349084	0.208675	-0.0563038	0	0	-0.107566	-0.136679	-0.316702	0.0342301	0.129144	0	0	-0.157772	-0.00874725	0.0818249	-0.0808761	-0.422114	-0.326232	1.71208	1.5708	0	0	0.378364	0.147367	0.287125	1.60253	1.00666	0	0
20.26	1.41261	1.39213	0.302918	0.807994	-0.706025	0.970317	0.204877	0.120255	-0.342512	0.199481	-0.0538862	0	0	-0.104523	-0.124742	-0.313002	0.031113	0.129127	0	0	-0.150448	-0.0220762	0.0793475	-0.0861925	-0.418105	-0.329013	1.71513	1.5708	0	0	0.375655	0.144499	0.28835	1.60786	0.998348	0	0
